<svg width="30.000000" height="30.000000" viewBox="0 0 30 30" fill="none" xmlns="http://www.w3.org/2000/svg" xmlns:xlink="http://www.w3.org/1999/xlink">
	<desc>
			Created with Pixso.
	</desc>
	<defs/>
	<path d="M15 30C6.71 30 0 23.28 0 15C0 6.71 6.71 0 15 0C23.28 0 30 6.71 30 15C30 23.28 23.28 30 15 30Z" fill="#61A8DE" fill-opacity="1.000000" fill-rule="evenodd"/>
	<path d="M22.92 6.62L3.45 14.44C2.82 14.69 2.86 15.62 3.51 15.82L8.46 17.32L10.3 23.36C10.5 23.99 11.27 24.18 11.72 23.71L14.28 21.02L19.3 24.81C19.91 25.28 20.79 24.93 20.94 24.17L24.27 7.79C24.43 6.99 23.66 6.32 22.92 6.62ZM20.48 10.25L11.44 18.49C11.35 18.57 11.29 18.69 11.28 18.81L10.93 22C10.92 22.1 10.78 22.12 10.74 22.02L9.31 17.26C9.25 17.04 9.33 16.81 9.52 16.69L20.2 9.86C20.45 9.71 20.7 10.05 20.48 10.25Z" fill="#FFFFFF" fill-opacity="1.000000" fill-rule="nonzero"/>
</svg>
