<svg width="21.880371" height="28.999695" viewBox="0 0 21.8804 28.9997" fill="none" xmlns="http://www.w3.org/2000/svg" xmlns:xlink="http://www.w3.org/1999/xlink">
	<desc>
			Created with Pixso.
	</desc>
	<defs/>
	<path d="M1 10.94C1 12.37 1.29 13.73 1.86 14.99C4.35 20.43 9.11 26.17 10.52 27.8C10.62 27.92 10.77 27.99 10.94 27.99C11.1 27.99 11.25 27.92 11.35 27.8C12.76 26.17 17.52 20.43 20.01 14.99C20.58 13.73 20.88 12.37 20.88 10.94C20.87 5.45 16.42 1 10.93 1C5.45 1 1 5.45 1 10.94ZM5.77 10.94C5.77 8.09 8.09 5.77 10.93 5.77C13.78 5.77 16.1 8.09 16.1 10.94C16.1 13.78 13.78 16.1 10.93 16.1C8.09 16.1 5.77 13.78 5.77 10.94Z" stroke="#A8A8A8" stroke-opacity="1.000000" stroke-width="2.000000" stroke-linejoin="round"/>
</svg>
