<svg width="30.000000" height="30.000000" viewBox="0 0 30 30" fill="none" xmlns="http://www.w3.org/2000/svg" xmlns:xlink="http://www.w3.org/1999/xlink">
	<desc>
			Created with Pixso.
	</desc>
	<defs/>
	<path d="M30 15C30 23.28 23.28 30 15 30C6.71 30 0 23.28 0 15C0 6.71 6.71 0 15 0C23.28 0 30 6.71 30 15Z" fill="#4A76A8" fill-opacity="1.000000" fill-rule="evenodd"/>
	<path d="M14.43 21.57L15.61 21.57C15.61 21.57 15.96 21.53 16.14 21.34C16.31 21.16 16.3 20.82 16.3 20.82C16.3 20.82 16.28 19.24 17.01 19.01C17.74 18.78 18.67 20.54 19.65 21.21C20.39 21.72 20.96 21.61 20.96 21.61L23.59 21.57C23.59 21.57 24.96 21.49 24.31 20.41C24.26 20.32 23.93 19.61 22.36 18.14C20.71 16.61 20.93 16.86 22.92 14.21C24.13 12.6 24.61 11.62 24.46 11.19C24.31 10.79 23.42 10.9 23.42 10.9L20.46 10.92C20.46 10.92 20.24 10.89 20.08 10.98C19.92 11.08 19.82 11.3 19.82 11.3C19.82 11.3 19.35 12.55 18.72 13.61C17.41 15.85 16.88 15.97 16.66 15.83C16.16 15.51 16.29 14.53 16.29 13.83C16.29 11.66 16.62 10.76 15.65 10.52C15.32 10.45 15.09 10.4 14.26 10.39C13.21 10.38 12.31 10.39 11.81 10.64C11.47 10.8 11.21 11.17 11.37 11.19C11.56 11.22 12.01 11.31 12.24 11.63C12.54 12.04 12.53 12.97 12.53 12.97C12.53 12.97 12.71 15.53 12.13 15.84C11.73 16.06 11.18 15.62 10 13.59C9.4 12.54 8.95 11.39 8.95 11.39C8.95 11.39 8.86 11.18 8.7 11.06C8.51 10.93 8.25 10.88 8.25 10.88L5.43 10.9C5.43 10.9 5.01 10.91 4.86 11.09C4.72 11.26 4.85 11.6 4.85 11.6C4.85 11.6 7.05 16.75 9.54 19.35C11.83 21.73 14.43 21.57 14.43 21.57Z" fill="#FFFFFF" fill-opacity="1.000000" fill-rule="evenodd"/>
</svg>
