<svg width="30.000000" height="30.000000" viewBox="0 0 30 30" fill="none" xmlns="http://www.w3.org/2000/svg" xmlns:xlink="http://www.w3.org/1999/xlink">
	<desc>
			Created with Pixso.
	</desc>
	<defs/>
	<path d="M15 30C6.71 30 0 23.28 0 15C0 6.71 6.71 0 15 0C23.28 0 30 6.71 30 15C30 23.28 23.28 30 15 30Z" fill="#1BD741" fill-opacity="1.000000" fill-rule="evenodd"/>
	<path d="M4.5 25.5L5.97 20.28C5.03 18.67 4.53 16.85 4.53 14.97C4.53 9.19 9.23 4.49 15.01 4.49C20.79 4.49 25.49 9.19 25.49 14.97C25.49 20.75 20.79 25.45 15.01 25.45C13.21 25.45 11.45 24.99 9.89 24.11L4.5 25.5ZM10.16 22.21L10.48 22.4C11.84 23.23 13.41 23.67 15.01 23.67C19.81 23.67 23.71 19.77 23.71 14.97C23.71 10.17 19.81 6.27 15.01 6.27C10.21 6.27 6.31 10.17 6.31 14.97C6.31 16.64 6.78 18.27 7.68 19.66L7.9 20L7.05 23.01L10.16 22.21Z" fill="#FFFFFF" fill-opacity="1.000000" fill-rule="nonzero"/>
	<path d="M12.07 10.09L11.39 10.06C11.17 10.04 10.96 10.12 10.8 10.26C10.47 10.54 9.94 11.1 9.78 11.82C9.54 12.89 9.91 14.21 10.88 15.53C11.85 16.84 13.64 18.95 16.83 19.85C17.85 20.14 18.66 19.94 19.28 19.54C19.77 19.23 20.11 18.72 20.24 18.15L20.34 17.64C20.38 17.48 20.3 17.32 20.15 17.25L17.85 16.19C17.7 16.12 17.52 16.17 17.42 16.3L16.52 17.47C16.45 17.55 16.34 17.59 16.23 17.55C15.61 17.33 13.54 16.47 12.41 14.28C12.36 14.19 12.37 14.07 12.44 13.99L13.3 12.99C13.39 12.89 13.41 12.75 13.36 12.62L12.37 10.31C12.32 10.18 12.2 10.1 12.07 10.09Z" fill="#FFFFFF" fill-opacity="1.000000" fill-rule="nonzero"/>
</svg>
