<svg width="17.000000" height="12.142822" viewBox="0 0 17 12.1428" fill="none" xmlns="http://www.w3.org/2000/svg" xmlns:xlink="http://www.w3.org/1999/xlink">
	<desc>
			Created with Pixso.
	</desc>
	<defs/>
	<path d="M15.7772 0C16.1039 0 16.3977 0.125122 16.6163 0.329102L8.5 7.28577L0.386108 0.331543C0.604736 0.126343 0.89856 0 1.22278 0L15.7772 0ZM17 11.1544L11.1313 6.16736L17 1.0625L17 11.1544ZM0 1.06616L0 11.1544L5.86865 6.16736L0 1.06616ZM8.5 8.5L6.39685 6.65918L0.383789 11.8137C0.602295 12.0166 0.897339 12.1428 1.22278 12.1428L15.7772 12.1428C16.1014 12.1428 16.3953 12.0166 16.6127 11.8137L10.6031 6.65918L8.5 8.5Z" clip-rule="evenodd" fill="#DC3F3F" fill-opacity="1.000000" fill-rule="evenodd"/>
</svg>
