<svg width="16.000000" height="16.000000" viewBox="0 0 16 16" fill="none" xmlns="http://www.w3.org/2000/svg" xmlns:xlink="http://www.w3.org/1999/xlink">
	<desc>
			Created with Pixso.
	</desc>
	<defs/>
	<path d="M15.54 11.3L12.04 9.8C11.89 9.74 11.72 9.72 11.57 9.76C11.41 9.8 11.27 9.89 11.16 10.02L9.61 11.91C7.18 10.76 5.22 8.81 4.08 6.37L5.97 4.82C6.1 4.72 6.19 4.58 6.22 4.42C6.26 4.26 6.25 4.1 6.19 3.95L4.69 0.45C4.62 0.29 4.49 0.16 4.33 0.08C4.18 0 4 -0.03 3.83 0.01L0.58 0.76C0.41 0.8 0.26 0.9 0.16 1.03C0.05 1.16 0 1.33 0 1.49C0 9.51 6.49 16 14.5 16C14.66 16 14.83 15.94 14.96 15.83C15.1 15.73 15.19 15.58 15.23 15.41L15.98 12.16C16.02 11.99 15.99 11.81 15.91 11.65C15.83 11.5 15.7 11.37 15.54 11.3Z" fill="#DC3F3F" fill-opacity="1.000000" fill-rule="evenodd"/>
</svg>
