<svg width="14.880005" height="20.208740" viewBox="0 0 14.88 20.2087" fill="none" xmlns="http://www.w3.org/2000/svg" xmlns:xlink="http://www.w3.org/1999/xlink">
	<desc>
			Created with Pixso.
	</desc>
	<defs/>
	<path d="M7.43 0C3.33 0 0 3.33 0 7.44C0 8.51 0.21 9.53 0.65 10.47C2.51 14.54 6.07 18.84 7.12 20.06C7.2 20.15 7.31 20.2 7.43 20.2C7.56 20.2 7.67 20.15 7.75 20.06C8.8 18.84 12.36 14.54 14.22 10.47C14.66 9.53 14.88 8.51 14.88 7.44C14.87 3.33 11.54 0 7.43 0ZM7.43 11.3C5.3 11.3 3.57 9.57 3.57 7.43C3.57 5.3 5.3 3.57 7.43 3.57C9.57 3.57 11.3 5.3 11.3 7.43C11.3 9.57 9.57 11.3 7.43 11.3Z" fill="#DC3F3F" fill-opacity="1.000000" fill-rule="evenodd"/>
</svg>
