<svg width="7.000000" height="10.000000" viewBox="0 0 7 10" fill="none" xmlns="http://www.w3.org/2000/svg" xmlns:xlink="http://www.w3.org/1999/xlink">
	<desc>
			Created with Pixso.
	</desc>
	<defs/>
	<path d="M3.49 0C1.57 0 0 1.65 0 3.68C0 4.21 0.1 4.71 0.3 5.18C1.18 7.19 2.85 9.32 3.35 9.92C3.38 9.97 3.44 10 3.49 10C3.55 10 3.61 9.97 3.64 9.92C4.14 9.32 5.81 7.19 6.69 5.18C6.89 4.71 7 4.21 7 3.68C6.99 1.65 5.42 0 3.49 0ZM3.49 5.59C2.49 5.59 1.68 4.73 1.68 3.68C1.68 2.62 2.49 1.76 3.49 1.76C4.5 1.76 5.31 2.62 5.31 3.68C5.31 4.73 4.5 5.59 3.49 5.59Z" fill="#DC3F3F" fill-opacity="1.000000" fill-rule="evenodd"/>
</svg>
